solid CATIA STL
  facet normal -1.000000e+000  0.000000e+000  -0.000000e+000
    outer loop
      vertex  5.010000e+000 -1.200000e+002  9.291921e+002
      vertex  5.010000e+000 -2.000000e+001  9.631921e+002
      vertex  5.010000e+000 -2.000000e+001  9.391921e+002
    endloop
  endfacet
  facet normal -1.000000e+000  0.000000e+000  -0.000000e+000
    outer loop
      vertex  5.010000e+000 -1.200000e+002  9.291921e+002
      vertex  5.010000e+000 -2.000000e+001  9.391921e+002
      vertex  5.010000e+000 -2.500000e+000  9.291921e+002
    endloop
  endfacet
  facet normal -1.000000e+000  -0.000000e+000  0.000000e+000
    outer loop
      vertex  5.010000e+000 -1.200000e+002  9.291921e+002
      vertex  5.010000e+000 -2.500000e+000  9.291921e+002
      vertex  5.010000e+000 -2.000000e+001  9.191921e+002
    endloop
  endfacet
  facet normal -1.000000e+000  -0.000000e+000  -0.000000e+000
    outer loop
      vertex  5.010000e+000 -1.200000e+002  9.291921e+002
      vertex  5.010000e+000 -2.000000e+001  9.191921e+002
      vertex  5.010000e+000 -2.000000e+001  8.951921e+002
    endloop
  endfacet
  facet normal -1.000000e+000  0.000000e+000  0.000000e+000
    outer loop
      vertex  5.010000e+000  8.000000e+001  9.391921e+002
      vertex  5.010000e+000  8.000000e+001  9.191921e+002
      vertex  5.010000e+000  2.500000e+000  9.291921e+002
    endloop
  endfacet
  facet normal -1.000000e+000  0.000000e+000  0.000000e+000
    outer loop
      vertex  5.010000e+000  8.000000e+001  9.391921e+002
      vertex  5.010000e+000  2.500000e+000  9.291921e+002
      vertex  5.010000e+000  2.462019e+000  9.296262e+002
    endloop
  endfacet
  facet normal -1.000000e+000  0.000000e+000  0.000000e+000
    outer loop
      vertex  5.010000e+000  8.000000e+001  9.391921e+002
      vertex  5.010000e+000  2.462019e+000  9.296262e+002
      vertex  5.010000e+000  2.349231e+000  9.300471e+002
    endloop
  endfacet
  facet normal -1.000000e+000  0.000000e+000  0.000000e+000
    outer loop
      vertex  5.010000e+000  8.000000e+001  9.391921e+002
      vertex  5.010000e+000  2.349231e+000  9.300471e+002
      vertex  5.010000e+000  2.165064e+000  9.304421e+002
    endloop
  endfacet
  facet normal -1.000000e+000  0.000000e+000  0.000000e+000
    outer loop
      vertex  5.010000e+000  8.000000e+001  9.391921e+002
      vertex  5.010000e+000  2.165064e+000  9.304421e+002
      vertex  5.010000e+000  1.915111e+000  9.307991e+002
    endloop
  endfacet
  facet normal -9.999999e-001  0.000000e+000  0.000000e+000
    outer loop
      vertex  5.010000e+000  8.000000e+001  9.391921e+002
      vertex  5.010000e+000  1.915111e+000  9.307991e+002
      vertex  5.010000e+000  1.606969e+000  9.311072e+002
    endloop
  endfacet
  facet normal -9.999999e-001  0.000000e+000  0.000000e+000
    outer loop
      vertex  5.010000e+000  8.000000e+001  9.391921e+002
      vertex  5.010000e+000  1.606969e+000  9.311072e+002
      vertex  5.010000e+000  1.250000e+000  9.313571e+002
    endloop
  endfacet
  facet normal -1.000000e+000  0.000000e+000  0.000000e+000
    outer loop
      vertex  5.010000e+000  8.000000e+001  9.391921e+002
      vertex  5.010000e+000  1.250000e+000  9.313571e+002
      vertex  5.010000e+000  8.550504e-001  9.315413e+002
    endloop
  endfacet
  facet normal -1.000000e+000  0.000000e+000  0.000000e+000
    outer loop
      vertex  5.010000e+000  8.000000e+001  9.391921e+002
      vertex  5.010000e+000  8.550504e-001  9.315413e+002
      vertex  5.010000e+000  4.341204e-001  9.316541e+002
    endloop
  endfacet
  facet normal -1.000000e+000  0.000000e+000  0.000000e+000
    outer loop
      vertex  5.010000e+000  8.000000e+001  9.391921e+002
      vertex  5.010000e+000  4.341204e-001  9.316541e+002
      vertex  5.010000e+000 -3.061516e-016  9.316921e+002
    endloop
  endfacet
  facet normal -1.000000e+000  -0.000000e+000  0.000000e+000
    outer loop
      vertex  5.010000e+000 -2.000000e+001  9.391921e+002
      vertex  5.010000e+000  8.000000e+001  9.391921e+002
      vertex  5.010000e+000 -3.061516e-016  9.316921e+002
    endloop
  endfacet
  facet normal -1.000000e+000  -0.000000e+000  0.000000e+000
    outer loop
      vertex  5.010000e+000 -2.000000e+001  9.391921e+002
      vertex  5.010000e+000 -3.061516e-016  9.316921e+002
      vertex  5.010000e+000 -4.341204e-001  9.316541e+002
    endloop
  endfacet
  facet normal -1.000000e+000  -0.000000e+000  0.000000e+000
    outer loop
      vertex  5.010000e+000 -2.000000e+001  9.391921e+002
      vertex  5.010000e+000 -4.341204e-001  9.316541e+002
      vertex  5.010000e+000 -8.550504e-001  9.315413e+002
    endloop
  endfacet
  facet normal -9.999999e-001  -0.000000e+000  0.000000e+000
    outer loop
      vertex  5.010000e+000 -2.000000e+001  9.391921e+002
      vertex  5.010000e+000 -8.550504e-001  9.315413e+002
      vertex  5.010000e+000 -1.250000e+000  9.313571e+002
    endloop
  endfacet
  facet normal -1.000000e+000  -0.000000e+000  0.000000e+000
    outer loop
      vertex  5.010000e+000 -2.000000e+001  9.391921e+002
      vertex  5.010000e+000 -1.250000e+000  9.313571e+002
      vertex  5.010000e+000 -1.606969e+000  9.311072e+002
    endloop
  endfacet
  facet normal -1.000000e+000  -0.000000e+000  0.000000e+000
    outer loop
      vertex  5.010000e+000 -2.000000e+001  9.391921e+002
      vertex  5.010000e+000 -1.606969e+000  9.311072e+002
      vertex  5.010000e+000 -1.915111e+000  9.307991e+002
    endloop
  endfacet
  facet normal -1.000000e+000  -0.000000e+000  0.000000e+000
    outer loop
      vertex  5.010000e+000 -2.000000e+001  9.391921e+002
      vertex  5.010000e+000 -1.915111e+000  9.307991e+002
      vertex  5.010000e+000 -2.165064e+000  9.304421e+002
    endloop
  endfacet
  facet normal -1.000000e+000  -0.000000e+000  0.000000e+000
    outer loop
      vertex  5.010000e+000 -2.000000e+001  9.391921e+002
      vertex  5.010000e+000 -2.165064e+000  9.304421e+002
      vertex  5.010000e+000 -2.349231e+000  9.300471e+002
    endloop
  endfacet
  facet normal -1.000000e+000  -0.000000e+000  0.000000e+000
    outer loop
      vertex  5.010000e+000 -2.000000e+001  9.391921e+002
      vertex  5.010000e+000 -2.349231e+000  9.300471e+002
      vertex  5.010000e+000 -2.462019e+000  9.296262e+002
    endloop
  endfacet
  facet normal -1.000000e+000  -0.000000e+000  0.000000e+000
    outer loop
      vertex  5.010000e+000 -2.000000e+001  9.391921e+002
      vertex  5.010000e+000 -2.462019e+000  9.296262e+002
      vertex  5.010000e+000 -2.500000e+000  9.291921e+002
    endloop
  endfacet
  facet normal -1.000000e+000  0.000000e+000  0.000000e+000
    outer loop
      vertex  5.010000e+000  8.000000e+001  9.191921e+002
      vertex  5.010000e+000 -1.530758e-016  9.266921e+002
      vertex  5.010000e+000  4.341204e-001  9.267300e+002
    endloop
  endfacet
  facet normal -1.000000e+000  0.000000e+000  0.000000e+000
    outer loop
      vertex  5.010000e+000  8.000000e+001  9.191921e+002
      vertex  5.010000e+000  4.341204e-001  9.267300e+002
      vertex  5.010000e+000  8.550504e-001  9.268428e+002
    endloop
  endfacet
  facet normal -1.000000e+000  0.000000e+000  0.000000e+000
    outer loop
      vertex  5.010000e+000  8.000000e+001  9.191921e+002
      vertex  5.010000e+000  8.550504e-001  9.268428e+002
      vertex  5.010000e+000  1.250000e+000  9.270270e+002
    endloop
  endfacet
  facet normal -9.999999e-001  0.000000e+000  0.000000e+000
    outer loop
      vertex  5.010000e+000  8.000000e+001  9.191921e+002
      vertex  5.010000e+000  1.250000e+000  9.270270e+002
      vertex  5.010000e+000  1.606969e+000  9.272770e+002
    endloop
  endfacet
  facet normal -1.000000e+000  0.000000e+000  0.000000e+000
    outer loop
      vertex  5.010000e+000  8.000000e+001  9.191921e+002
      vertex  5.010000e+000  1.606969e+000  9.272770e+002
      vertex  5.010000e+000  1.915111e+000  9.275851e+002
    endloop
  endfacet
  facet normal -1.000000e+000  0.000000e+000  0.000000e+000
    outer loop
      vertex  5.010000e+000  8.000000e+001  9.191921e+002
      vertex  5.010000e+000  1.915111e+000  9.275851e+002
      vertex  5.010000e+000  2.165064e+000  9.279421e+002
    endloop
  endfacet
  facet normal -1.000000e+000  0.000000e+000  0.000000e+000
    outer loop
      vertex  5.010000e+000  8.000000e+001  9.191921e+002
      vertex  5.010000e+000  2.165064e+000  9.279421e+002
      vertex  5.010000e+000  2.349231e+000  9.283370e+002
    endloop
  endfacet
  facet normal -1.000000e+000  0.000000e+000  0.000000e+000
    outer loop
      vertex  5.010000e+000  8.000000e+001  9.191921e+002
      vertex  5.010000e+000  2.349231e+000  9.283370e+002
      vertex  5.010000e+000  2.462019e+000  9.287579e+002
    endloop
  endfacet
  facet normal -1.000000e+000  0.000000e+000  0.000000e+000
    outer loop
      vertex  5.010000e+000  8.000000e+001  9.191921e+002
      vertex  5.010000e+000  2.462019e+000  9.287579e+002
      vertex  5.010000e+000  2.500000e+000  9.291921e+002
    endloop
  endfacet
  facet normal -1.000000e+000  0.000000e+000  -0.000000e+000
    outer loop
      vertex  5.010000e+000 -2.000000e+001  9.191921e+002
      vertex  5.010000e+000 -2.500000e+000  9.291921e+002
      vertex  5.010000e+000 -2.462019e+000  9.287579e+002
    endloop
  endfacet
  facet normal -1.000000e+000  0.000000e+000  -0.000000e+000
    outer loop
      vertex  5.010000e+000 -2.000000e+001  9.191921e+002
      vertex  5.010000e+000 -2.462019e+000  9.287579e+002
      vertex  5.010000e+000 -2.349231e+000  9.283370e+002
    endloop
  endfacet
  facet normal -1.000000e+000  0.000000e+000  -0.000000e+000
    outer loop
      vertex  5.010000e+000 -2.000000e+001  9.191921e+002
      vertex  5.010000e+000 -2.349231e+000  9.283370e+002
      vertex  5.010000e+000 -2.165064e+000  9.279421e+002
    endloop
  endfacet
  facet normal -1.000000e+000  0.000000e+000  -0.000000e+000
    outer loop
      vertex  5.010000e+000 -2.000000e+001  9.191921e+002
      vertex  5.010000e+000 -2.165064e+000  9.279421e+002
      vertex  5.010000e+000 -1.915111e+000  9.275851e+002
    endloop
  endfacet
  facet normal -1.000000e+000  0.000000e+000  -0.000000e+000
    outer loop
      vertex  5.010000e+000 -2.000000e+001  9.191921e+002
      vertex  5.010000e+000 -1.915111e+000  9.275851e+002
      vertex  5.010000e+000 -1.606969e+000  9.272770e+002
    endloop
  endfacet
  facet normal -1.000000e+000  0.000000e+000  -0.000000e+000
    outer loop
      vertex  5.010000e+000 -2.000000e+001  9.191921e+002
      vertex  5.010000e+000 -1.606969e+000  9.272770e+002
      vertex  5.010000e+000 -1.250000e+000  9.270270e+002
    endloop
  endfacet
  facet normal -9.999999e-001  0.000000e+000  -0.000000e+000
    outer loop
      vertex  5.010000e+000 -2.000000e+001  9.191921e+002
      vertex  5.010000e+000 -1.250000e+000  9.270270e+002
      vertex  5.010000e+000 -8.550504e-001  9.268428e+002
    endloop
  endfacet
  facet normal -1.000000e+000  0.000000e+000  -0.000000e+000
    outer loop
      vertex  5.010000e+000 -2.000000e+001  9.191921e+002
      vertex  5.010000e+000 -8.550504e-001  9.268428e+002
      vertex  5.010000e+000 -4.341204e-001  9.267300e+002
    endloop
  endfacet
  facet normal -1.000000e+000  0.000000e+000  -0.000000e+000
    outer loop
      vertex  5.010000e+000 -2.000000e+001  9.191921e+002
      vertex  5.010000e+000 -4.341204e-001  9.267300e+002
      vertex  5.010000e+000 -1.530758e-016  9.266921e+002
    endloop
  endfacet
  facet normal -1.000000e+000  0.000000e+000  -0.000000e+000
    outer loop
      vertex  5.010000e+000 -2.000000e+001  9.191921e+002
      vertex  5.010000e+000 -1.530758e-016  9.266921e+002
      vertex  5.010000e+000  8.000000e+001  9.191921e+002
    endloop
  endfacet
  facet normal  1.000000e+000  0.000000e+000  -0.000000e+000
    outer loop
      vertex  8.010000e+000 -1.200000e+002  9.291921e+002
      vertex  8.010000e+000 -2.000000e+001  8.951921e+002
      vertex  8.010000e+000 -2.000000e+001  9.191921e+002
    endloop
  endfacet
  facet normal  1.000000e+000  0.000000e+000  -0.000000e+000
    outer loop
      vertex  8.010000e+000 -1.200000e+002  9.291921e+002
      vertex  8.010000e+000 -2.000000e+001  9.191921e+002
      vertex  8.010000e+000 -2.500000e+000  9.291921e+002
    endloop
  endfacet
  facet normal  1.000000e+000  0.000000e+000  0.000000e+000
    outer loop
      vertex  8.010000e+000 -1.200000e+002  9.291921e+002
      vertex  8.010000e+000 -2.500000e+000  9.291921e+002
      vertex  8.010000e+000 -2.000000e+001  9.391921e+002
    endloop
  endfacet
  facet normal  1.000000e+000  0.000000e+000  -0.000000e+000
    outer loop
      vertex  8.010000e+000 -1.200000e+002  9.291921e+002
      vertex  8.010000e+000 -2.000000e+001  9.391921e+002
      vertex  8.010000e+000 -2.000000e+001  9.631921e+002
    endloop
  endfacet
  facet normal  1.000000e+000  -0.000000e+000  0.000000e+000
    outer loop
      vertex  8.010000e+000  8.000000e+001  9.391921e+002
      vertex  8.010000e+000 -3.061516e-016  9.316921e+002
      vertex  8.010000e+000  4.341204e-001  9.316541e+002
    endloop
  endfacet
  facet normal  1.000000e+000  -0.000000e+000  0.000000e+000
    outer loop
      vertex  8.010000e+000  8.000000e+001  9.391921e+002
      vertex  8.010000e+000  4.341204e-001  9.316541e+002
      vertex  8.010000e+000  8.550504e-001  9.315413e+002
    endloop
  endfacet
  facet normal  1.000000e+000  -0.000000e+000  0.000000e+000
    outer loop
      vertex  8.010000e+000  8.000000e+001  9.391921e+002
      vertex  8.010000e+000  8.550504e-001  9.315413e+002
      vertex  8.010000e+000  1.250000e+000  9.313571e+002
    endloop
  endfacet
  facet normal  9.999999e-001  -0.000000e+000  0.000000e+000
    outer loop
      vertex  8.010000e+000  8.000000e+001  9.391921e+002
      vertex  8.010000e+000  1.250000e+000  9.313571e+002
      vertex  8.010000e+000  1.606969e+000  9.311072e+002
    endloop
  endfacet
  facet normal  1.000000e+000  -0.000000e+000  0.000000e+000
    outer loop
      vertex  8.010000e+000  8.000000e+001  9.391921e+002
      vertex  8.010000e+000  1.606969e+000  9.311072e+002
      vertex  8.010000e+000  1.915111e+000  9.307991e+002
    endloop
  endfacet
  facet normal  1.000000e+000  -0.000000e+000  0.000000e+000
    outer loop
      vertex  8.010000e+000  8.000000e+001  9.391921e+002
      vertex  8.010000e+000  1.915111e+000  9.307991e+002
      vertex  8.010000e+000  2.165064e+000  9.304421e+002
    endloop
  endfacet
  facet normal  1.000000e+000  -0.000000e+000  0.000000e+000
    outer loop
      vertex  8.010000e+000  8.000000e+001  9.391921e+002
      vertex  8.010000e+000  2.165064e+000  9.304421e+002
      vertex  8.010000e+000  2.349231e+000  9.300471e+002
    endloop
  endfacet
  facet normal  1.000000e+000  -0.000000e+000  0.000000e+000
    outer loop
      vertex  8.010000e+000  8.000000e+001  9.391921e+002
      vertex  8.010000e+000  2.349231e+000  9.300471e+002
      vertex  8.010000e+000  2.462019e+000  9.296262e+002
    endloop
  endfacet
  facet normal  1.000000e+000  -0.000000e+000  0.000000e+000
    outer loop
      vertex  8.010000e+000  8.000000e+001  9.391921e+002
      vertex  8.010000e+000  2.462019e+000  9.296262e+002
      vertex  8.010000e+000  2.500000e+000  9.291921e+002
    endloop
  endfacet
  facet normal  1.000000e+000  -0.000000e+000  0.000000e+000
    outer loop
      vertex  8.010000e+000  8.000000e+001  9.391921e+002
      vertex  8.010000e+000  2.500000e+000  9.291921e+002
      vertex  8.010000e+000  8.000000e+001  9.191921e+002
    endloop
  endfacet
  facet normal  1.000000e+000  0.000000e+000  -0.000000e+000
    outer loop
      vertex  8.010000e+000 -2.000000e+001  9.391921e+002
      vertex  8.010000e+000 -2.500000e+000  9.291921e+002
      vertex  8.010000e+000 -2.462019e+000  9.296262e+002
    endloop
  endfacet
  facet normal  1.000000e+000  0.000000e+000  -0.000000e+000
    outer loop
      vertex  8.010000e+000 -2.000000e+001  9.391921e+002
      vertex  8.010000e+000 -2.462019e+000  9.296262e+002
      vertex  8.010000e+000 -2.349231e+000  9.300471e+002
    endloop
  endfacet
  facet normal  1.000000e+000  0.000000e+000  -0.000000e+000
    outer loop
      vertex  8.010000e+000 -2.000000e+001  9.391921e+002
      vertex  8.010000e+000 -2.349231e+000  9.300471e+002
      vertex  8.010000e+000 -2.165064e+000  9.304421e+002
    endloop
  endfacet
  facet normal  1.000000e+000  0.000000e+000  -0.000000e+000
    outer loop
      vertex  8.010000e+000 -2.000000e+001  9.391921e+002
      vertex  8.010000e+000 -2.165064e+000  9.304421e+002
      vertex  8.010000e+000 -1.915111e+000  9.307991e+002
    endloop
  endfacet
  facet normal  1.000000e+000  0.000000e+000  -0.000000e+000
    outer loop
      vertex  8.010000e+000 -2.000000e+001  9.391921e+002
      vertex  8.010000e+000 -1.915111e+000  9.307991e+002
      vertex  8.010000e+000 -1.606969e+000  9.311072e+002
    endloop
  endfacet
  facet normal  1.000000e+000  0.000000e+000  -0.000000e+000
    outer loop
      vertex  8.010000e+000 -2.000000e+001  9.391921e+002
      vertex  8.010000e+000 -1.606969e+000  9.311072e+002
      vertex  8.010000e+000 -1.250000e+000  9.313571e+002
    endloop
  endfacet
  facet normal  9.999999e-001  0.000000e+000  -0.000000e+000
    outer loop
      vertex  8.010000e+000 -2.000000e+001  9.391921e+002
      vertex  8.010000e+000 -1.250000e+000  9.313571e+002
      vertex  8.010000e+000 -8.550504e-001  9.315413e+002
    endloop
  endfacet
  facet normal  1.000000e+000  0.000000e+000  -0.000000e+000
    outer loop
      vertex  8.010000e+000 -2.000000e+001  9.391921e+002
      vertex  8.010000e+000 -8.550504e-001  9.315413e+002
      vertex  8.010000e+000 -4.341204e-001  9.316541e+002
    endloop
  endfacet
  facet normal  1.000000e+000  0.000000e+000  -0.000000e+000
    outer loop
      vertex  8.010000e+000 -2.000000e+001  9.391921e+002
      vertex  8.010000e+000 -4.341204e-001  9.316541e+002
      vertex  8.010000e+000 -3.061516e-016  9.316921e+002
    endloop
  endfacet
  facet normal  1.000000e+000  0.000000e+000  -0.000000e+000
    outer loop
      vertex  8.010000e+000 -2.000000e+001  9.391921e+002
      vertex  8.010000e+000 -3.061516e-016  9.316921e+002
      vertex  8.010000e+000  8.000000e+001  9.391921e+002
    endloop
  endfacet
  facet normal  1.000000e+000  0.000000e+000  0.000000e+000
    outer loop
      vertex  8.010000e+000  8.000000e+001  9.191921e+002
      vertex  8.010000e+000  2.500000e+000  9.291921e+002
      vertex  8.010000e+000  2.462019e+000  9.287579e+002
    endloop
  endfacet
  facet normal  1.000000e+000  0.000000e+000  0.000000e+000
    outer loop
      vertex  8.010000e+000  8.000000e+001  9.191921e+002
      vertex  8.010000e+000  2.462019e+000  9.287579e+002
      vertex  8.010000e+000  2.349231e+000  9.283370e+002
    endloop
  endfacet
  facet normal  1.000000e+000  0.000000e+000  0.000000e+000
    outer loop
      vertex  8.010000e+000  8.000000e+001  9.191921e+002
      vertex  8.010000e+000  2.349231e+000  9.283370e+002
      vertex  8.010000e+000  2.165064e+000  9.279421e+002
    endloop
  endfacet
  facet normal  1.000000e+000  0.000000e+000  0.000000e+000
    outer loop
      vertex  8.010000e+000  8.000000e+001  9.191921e+002
      vertex  8.010000e+000  2.165064e+000  9.279421e+002
      vertex  8.010000e+000  1.915111e+000  9.275851e+002
    endloop
  endfacet
  facet normal  9.999999e-001  0.000000e+000  0.000000e+000
    outer loop
      vertex  8.010000e+000  8.000000e+001  9.191921e+002
      vertex  8.010000e+000  1.915111e+000  9.275851e+002
      vertex  8.010000e+000  1.606969e+000  9.272770e+002
    endloop
  endfacet
  facet normal  9.999999e-001  0.000000e+000  0.000000e+000
    outer loop
      vertex  8.010000e+000  8.000000e+001  9.191921e+002
      vertex  8.010000e+000  1.606969e+000  9.272770e+002
      vertex  8.010000e+000  1.250000e+000  9.270270e+002
    endloop
  endfacet
  facet normal  1.000000e+000  0.000000e+000  0.000000e+000
    outer loop
      vertex  8.010000e+000  8.000000e+001  9.191921e+002
      vertex  8.010000e+000  1.250000e+000  9.270270e+002
      vertex  8.010000e+000  8.550504e-001  9.268428e+002
    endloop
  endfacet
  facet normal  1.000000e+000  0.000000e+000  0.000000e+000
    outer loop
      vertex  8.010000e+000  8.000000e+001  9.191921e+002
      vertex  8.010000e+000  8.550504e-001  9.268428e+002
      vertex  8.010000e+000  4.341204e-001  9.267300e+002
    endloop
  endfacet
  facet normal  1.000000e+000  0.000000e+000  0.000000e+000
    outer loop
      vertex  8.010000e+000  8.000000e+001  9.191921e+002
      vertex  8.010000e+000  4.341204e-001  9.267300e+002
      vertex  8.010000e+000 -1.530758e-016  9.266921e+002
    endloop
  endfacet
  facet normal  1.000000e+000  0.000000e+000  0.000000e+000
    outer loop
      vertex  8.010000e+000 -2.000000e+001  9.191921e+002
      vertex  8.010000e+000  8.000000e+001  9.191921e+002
      vertex  8.010000e+000 -1.530758e-016  9.266921e+002
    endloop
  endfacet
  facet normal  1.000000e+000  0.000000e+000  0.000000e+000
    outer loop
      vertex  8.010000e+000 -2.000000e+001  9.191921e+002
      vertex  8.010000e+000 -1.530758e-016  9.266921e+002
      vertex  8.010000e+000 -4.341204e-001  9.267300e+002
    endloop
  endfacet
  facet normal  1.000000e+000  0.000000e+000  0.000000e+000
    outer loop
      vertex  8.010000e+000 -2.000000e+001  9.191921e+002
      vertex  8.010000e+000 -4.341204e-001  9.267300e+002
      vertex  8.010000e+000 -8.550504e-001  9.268428e+002
    endloop
  endfacet
  facet normal  9.999999e-001  0.000000e+000  0.000000e+000
    outer loop
      vertex  8.010000e+000 -2.000000e+001  9.191921e+002
      vertex  8.010000e+000 -8.550504e-001  9.268428e+002
      vertex  8.010000e+000 -1.250000e+000  9.270270e+002
    endloop
  endfacet
  facet normal  1.000000e+000  0.000000e+000  0.000000e+000
    outer loop
      vertex  8.010000e+000 -2.000000e+001  9.191921e+002
      vertex  8.010000e+000 -1.250000e+000  9.270270e+002
      vertex  8.010000e+000 -1.606969e+000  9.272770e+002
    endloop
  endfacet
  facet normal  1.000000e+000  0.000000e+000  0.000000e+000
    outer loop
      vertex  8.010000e+000 -2.000000e+001  9.191921e+002
      vertex  8.010000e+000 -1.606969e+000  9.272770e+002
      vertex  8.010000e+000 -1.915111e+000  9.275851e+002
    endloop
  endfacet
  facet normal  1.000000e+000  0.000000e+000  0.000000e+000
    outer loop
      vertex  8.010000e+000 -2.000000e+001  9.191921e+002
      vertex  8.010000e+000 -1.915111e+000  9.275851e+002
      vertex  8.010000e+000 -2.165064e+000  9.279421e+002
    endloop
  endfacet
  facet normal  1.000000e+000  0.000000e+000  0.000000e+000
    outer loop
      vertex  8.010000e+000 -2.000000e+001  9.191921e+002
      vertex  8.010000e+000 -2.165064e+000  9.279421e+002
      vertex  8.010000e+000 -2.349231e+000  9.283370e+002
    endloop
  endfacet
  facet normal  1.000000e+000  0.000000e+000  0.000000e+000
    outer loop
      vertex  8.010000e+000 -2.000000e+001  9.191921e+002
      vertex  8.010000e+000 -2.349231e+000  9.283370e+002
      vertex  8.010000e+000 -2.462019e+000  9.287579e+002
    endloop
  endfacet
  facet normal  1.000000e+000  0.000000e+000  0.000000e+000
    outer loop
      vertex  8.010000e+000 -2.000000e+001  9.191921e+002
      vertex  8.010000e+000 -2.462019e+000  9.287579e+002
      vertex  8.010000e+000 -2.500000e+000  9.291921e+002
    endloop
  endfacet
  facet normal  0.000000e+000  9.961951e-001 -8.715110e-002
    outer loop
      vertex  8.010000e+000 -2.500000e+000  9.291921e+002
      vertex  5.010000e+000 -2.462019e+000  9.296262e+002
      vertex  8.010000e+000 -2.462019e+000  9.296262e+002
    endloop
  endfacet
  facet normal  0.000000e+000  9.659209e-001 -2.588374e-001
    outer loop
      vertex  8.010000e+000 -2.462019e+000  9.296262e+002
      vertex  5.010000e+000 -2.462019e+000  9.296262e+002
      vertex  5.010000e+000 -2.349231e+000  9.300471e+002
    endloop
  endfacet
  facet normal  0.000000e+000  9.659209e-001 -2.588374e-001
    outer loop
      vertex  8.010000e+000 -2.462019e+000  9.296262e+002
      vertex  5.010000e+000 -2.349231e+000  9.300471e+002
      vertex  8.010000e+000 -2.349231e+000  9.300471e+002
    endloop
  endfacet
  facet normal  0.000000e+000  9.063116e-001 -4.226101e-001
    outer loop
      vertex  8.010000e+000 -2.349231e+000  9.300471e+002
      vertex  5.010000e+000 -2.349231e+000  9.300471e+002
      vertex  5.010000e+000 -2.165064e+000  9.304421e+002
    endloop
  endfacet
  facet normal  0.000000e+000  9.063116e-001 -4.226101e-001
    outer loop
      vertex  8.010000e+000 -2.349231e+000  9.300471e+002
      vertex  5.010000e+000 -2.165064e+000  9.304421e+002
      vertex  8.010000e+000 -2.165064e+000  9.304421e+002
    endloop
  endfacet
  facet normal  0.000000e+000  8.191712e-001 -5.735491e-001
    outer loop
      vertex  8.010000e+000 -2.165064e+000  9.304421e+002
      vertex  5.010000e+000 -2.165064e+000  9.304421e+002
      vertex  5.010000e+000 -1.915111e+000  9.307991e+002
    endloop
  endfacet
  facet normal  0.000000e+000  8.191712e-001 -5.735491e-001
    outer loop
      vertex  8.010000e+000 -2.165064e+000  9.304421e+002
      vertex  5.010000e+000 -1.915111e+000  9.307991e+002
      vertex  8.010000e+000 -1.915111e+000  9.307991e+002
    endloop
  endfacet
  facet normal  0.000000e+000  7.070647e-001 -7.071487e-001
    outer loop
      vertex  8.010000e+000 -1.915111e+000  9.307991e+002
      vertex  5.010000e+000 -1.915111e+000  9.307991e+002
      vertex  5.010000e+000 -1.606969e+000  9.311072e+002
    endloop
  endfacet
  facet normal  0.000000e+000  7.070647e-001 -7.071487e-001
    outer loop
      vertex  8.010000e+000 -1.915111e+000  9.307991e+002
      vertex  5.010000e+000 -1.606969e+000  9.311072e+002
      vertex  8.010000e+000 -1.606969e+000  9.311072e+002
    endloop
  endfacet
  facet normal  0.000000e+000  5.735558e-001 -8.191665e-001
    outer loop
      vertex  8.010000e+000 -1.606969e+000  9.311072e+002
      vertex  5.010000e+000 -1.606969e+000  9.311072e+002
      vertex  5.010000e+000 -1.250000e+000  9.313571e+002
    endloop
  endfacet
  facet normal  0.000000e+000  5.735558e-001 -8.191665e-001
    outer loop
      vertex  8.010000e+000 -1.606969e+000  9.311072e+002
      vertex  5.010000e+000 -1.250000e+000  9.313571e+002
      vertex  8.010000e+000 -1.250000e+000  9.313571e+002
    endloop
  endfacet
  facet normal  0.000000e+000  4.226862e-001 -9.062760e-001
    outer loop
      vertex  8.010000e+000 -1.250000e+000  9.313571e+002
      vertex  5.010000e+000 -1.250000e+000  9.313571e+002
      vertex  5.010000e+000 -8.550504e-001  9.315413e+002
    endloop
  endfacet
  facet normal  0.000000e+000  4.226862e-001 -9.062760e-001
    outer loop
      vertex  8.010000e+000 -1.250000e+000  9.313571e+002
      vertex  5.010000e+000 -8.550504e-001  9.315413e+002
      vertex  8.010000e+000 -8.550504e-001  9.315413e+002
    endloop
  endfacet
  facet normal  0.000000e+000  2.588300e-001 -9.659229e-001
    outer loop
      vertex  8.010000e+000 -8.550504e-001  9.315413e+002
      vertex  5.010000e+000 -8.550504e-001  9.315413e+002
      vertex  5.010000e+000 -4.341204e-001  9.316541e+002
    endloop
  endfacet
  facet normal  0.000000e+000  2.588300e-001 -9.659229e-001
    outer loop
      vertex  8.010000e+000 -8.550504e-001  9.315413e+002
      vertex  5.010000e+000 -4.341204e-001  9.316541e+002
      vertex  8.010000e+000 -4.341204e-001  9.316541e+002
    endloop
  endfacet
  facet normal  0.000000e+000  8.711760e-002 -9.961981e-001
    outer loop
      vertex  8.010000e+000 -4.341204e-001  9.316541e+002
      vertex  5.010000e+000 -4.341204e-001  9.316541e+002
      vertex  5.010000e+000 -3.061516e-016  9.316921e+002
    endloop
  endfacet
  facet normal  0.000000e+000  8.711760e-002 -9.961981e-001
    outer loop
      vertex  8.010000e+000 -4.341204e-001  9.316541e+002
      vertex  5.010000e+000 -3.061516e-016  9.316921e+002
      vertex  8.010000e+000 -3.061516e-016  9.316921e+002
    endloop
  endfacet
  facet normal  0.000000e+000  9.961951e-001 -8.715110e-002
    outer loop
      vertex  5.010000e+000 -2.462019e+000  9.296262e+002
      vertex  8.010000e+000 -2.500000e+000  9.291921e+002
      vertex  5.010000e+000 -2.500000e+000  9.291921e+002
    endloop
  endfacet
  facet normal  -0.000000e+000  9.961951e-001  8.715110e-002
    outer loop
      vertex  5.010000e+000 -2.500000e+000  9.291921e+002
      vertex  8.010000e+000 -2.500000e+000  9.291921e+002
      vertex  8.010000e+000 -2.462019e+000  9.287579e+002
    endloop
  endfacet
  facet normal  0.000000e+000  9.961951e-001  8.715110e-002
    outer loop
      vertex  5.010000e+000 -2.500000e+000  9.291921e+002
      vertex  8.010000e+000 -2.462019e+000  9.287579e+002
      vertex  5.010000e+000 -2.462019e+000  9.287579e+002
    endloop
  endfacet
  facet normal  -0.000000e+000  9.659209e-001  2.588374e-001
    outer loop
      vertex  5.010000e+000 -2.462019e+000  9.287579e+002
      vertex  8.010000e+000 -2.462019e+000  9.287579e+002
      vertex  8.010000e+000 -2.349231e+000  9.283370e+002
    endloop
  endfacet
  facet normal  0.000000e+000  9.659209e-001  2.588374e-001
    outer loop
      vertex  5.010000e+000 -2.462019e+000  9.287579e+002
      vertex  8.010000e+000 -2.349231e+000  9.283370e+002
      vertex  5.010000e+000 -2.349231e+000  9.283370e+002
    endloop
  endfacet
  facet normal  -0.000000e+000  9.063116e-001  4.226101e-001
    outer loop
      vertex  5.010000e+000 -2.349231e+000  9.283370e+002
      vertex  8.010000e+000 -2.349231e+000  9.283370e+002
      vertex  8.010000e+000 -2.165064e+000  9.279421e+002
    endloop
  endfacet
  facet normal  0.000000e+000  9.063116e-001  4.226101e-001
    outer loop
      vertex  5.010000e+000 -2.349231e+000  9.283370e+002
      vertex  8.010000e+000 -2.165064e+000  9.279421e+002
      vertex  5.010000e+000 -2.165064e+000  9.279421e+002
    endloop
  endfacet
  facet normal  -0.000000e+000  8.191712e-001  5.735491e-001
    outer loop
      vertex  5.010000e+000 -2.165064e+000  9.279421e+002
      vertex  8.010000e+000 -2.165064e+000  9.279421e+002
      vertex  8.010000e+000 -1.915111e+000  9.275851e+002
    endloop
  endfacet
  facet normal  0.000000e+000  8.191712e-001  5.735491e-001
    outer loop
      vertex  5.010000e+000 -2.165064e+000  9.279421e+002
      vertex  8.010000e+000 -1.915111e+000  9.275851e+002
      vertex  5.010000e+000 -1.915111e+000  9.275851e+002
    endloop
  endfacet
  facet normal  -0.000000e+000  7.070647e-001  7.071487e-001
    outer loop
      vertex  5.010000e+000 -1.915111e+000  9.275851e+002
      vertex  8.010000e+000 -1.915111e+000  9.275851e+002
      vertex  8.010000e+000 -1.606969e+000  9.272770e+002
    endloop
  endfacet
  facet normal  0.000000e+000  7.070647e-001  7.071487e-001
    outer loop
      vertex  5.010000e+000 -1.915111e+000  9.275851e+002
      vertex  8.010000e+000 -1.606969e+000  9.272770e+002
      vertex  5.010000e+000 -1.606969e+000  9.272770e+002
    endloop
  endfacet
  facet normal  -0.000000e+000  5.735558e-001  8.191665e-001
    outer loop
      vertex  5.010000e+000 -1.606969e+000  9.272770e+002
      vertex  8.010000e+000 -1.606969e+000  9.272770e+002
      vertex  8.010000e+000 -1.250000e+000  9.270270e+002
    endloop
  endfacet
  facet normal  0.000000e+000  5.735558e-001  8.191665e-001
    outer loop
      vertex  5.010000e+000 -1.606969e+000  9.272770e+002
      vertex  8.010000e+000 -1.250000e+000  9.270270e+002
      vertex  5.010000e+000 -1.250000e+000  9.270270e+002
    endloop
  endfacet
  facet normal  -0.000000e+000  4.226862e-001  9.062760e-001
    outer loop
      vertex  5.010000e+000 -1.250000e+000  9.270270e+002
      vertex  8.010000e+000 -1.250000e+000  9.270270e+002
      vertex  8.010000e+000 -8.550504e-001  9.268428e+002
    endloop
  endfacet
  facet normal  0.000000e+000  4.226862e-001  9.062760e-001
    outer loop
      vertex  5.010000e+000 -1.250000e+000  9.270270e+002
      vertex  8.010000e+000 -8.550504e-001  9.268428e+002
      vertex  5.010000e+000 -8.550504e-001  9.268428e+002
    endloop
  endfacet
  facet normal  -0.000000e+000  2.588300e-001  9.659229e-001
    outer loop
      vertex  5.010000e+000 -8.550504e-001  9.268428e+002
      vertex  8.010000e+000 -8.550504e-001  9.268428e+002
      vertex  8.010000e+000 -4.341204e-001  9.267300e+002
    endloop
  endfacet
  facet normal  0.000000e+000  2.588300e-001  9.659229e-001
    outer loop
      vertex  5.010000e+000 -8.550504e-001  9.268428e+002
      vertex  8.010000e+000 -4.341204e-001  9.267300e+002
      vertex  5.010000e+000 -4.341204e-001  9.267300e+002
    endloop
  endfacet
  facet normal  -0.000000e+000  8.711760e-002  9.961981e-001
    outer loop
      vertex  5.010000e+000 -4.341204e-001  9.267300e+002
      vertex  8.010000e+000 -4.341204e-001  9.267300e+002
      vertex  8.010000e+000 -1.530758e-016  9.266921e+002
    endloop
  endfacet
  facet normal  0.000000e+000  8.711760e-002  9.961981e-001
    outer loop
      vertex  5.010000e+000 -4.341204e-001  9.267300e+002
      vertex  8.010000e+000 -1.530758e-016  9.266921e+002
      vertex  5.010000e+000 -1.530758e-016  9.266921e+002
    endloop
  endfacet
  facet normal  0.000000e+000 -9.961951e-001  8.715110e-002
    outer loop
      vertex  8.010000e+000  2.500000e+000  9.291921e+002
      vertex  5.010000e+000  2.462019e+000  9.287579e+002
      vertex  8.010000e+000  2.462019e+000  9.287579e+002
    endloop
  endfacet
  facet normal  0.000000e+000 -9.659209e-001  2.588374e-001
    outer loop
      vertex  8.010000e+000  2.462019e+000  9.287579e+002
      vertex  5.010000e+000  2.462019e+000  9.287579e+002
      vertex  5.010000e+000  2.349231e+000  9.283370e+002
    endloop
  endfacet
  facet normal  0.000000e+000 -9.659209e-001  2.588374e-001
    outer loop
      vertex  8.010000e+000  2.462019e+000  9.287579e+002
      vertex  5.010000e+000  2.349231e+000  9.283370e+002
      vertex  8.010000e+000  2.349231e+000  9.283370e+002
    endloop
  endfacet
  facet normal  0.000000e+000 -9.063116e-001  4.226101e-001
    outer loop
      vertex  8.010000e+000  2.349231e+000  9.283370e+002
      vertex  5.010000e+000  2.349231e+000  9.283370e+002
      vertex  5.010000e+000  2.165064e+000  9.279421e+002
    endloop
  endfacet
  facet normal  0.000000e+000 -9.063116e-001  4.226101e-001
    outer loop
      vertex  8.010000e+000  2.349231e+000  9.283370e+002
      vertex  5.010000e+000  2.165064e+000  9.279421e+002
      vertex  8.010000e+000  2.165064e+000  9.279421e+002
    endloop
  endfacet
  facet normal  0.000000e+000 -8.191712e-001  5.735491e-001
    outer loop
      vertex  8.010000e+000  2.165064e+000  9.279421e+002
      vertex  5.010000e+000  2.165064e+000  9.279421e+002
      vertex  5.010000e+000  1.915111e+000  9.275851e+002
    endloop
  endfacet
  facet normal  0.000000e+000 -8.191712e-001  5.735491e-001
    outer loop
      vertex  8.010000e+000  2.165064e+000  9.279421e+002
      vertex  5.010000e+000  1.915111e+000  9.275851e+002
      vertex  8.010000e+000  1.915111e+000  9.275851e+002
    endloop
  endfacet
  facet normal  0.000000e+000 -7.070647e-001  7.071487e-001
    outer loop
      vertex  8.010000e+000  1.915111e+000  9.275851e+002
      vertex  5.010000e+000  1.915111e+000  9.275851e+002
      vertex  5.010000e+000  1.606969e+000  9.272770e+002
    endloop
  endfacet
  facet normal  0.000000e+000 -7.070647e-001  7.071487e-001
    outer loop
      vertex  8.010000e+000  1.915111e+000  9.275851e+002
      vertex  5.010000e+000  1.606969e+000  9.272770e+002
      vertex  8.010000e+000  1.606969e+000  9.272770e+002
    endloop
  endfacet
  facet normal  0.000000e+000 -5.735558e-001  8.191665e-001
    outer loop
      vertex  8.010000e+000  1.606969e+000  9.272770e+002
      vertex  5.010000e+000  1.606969e+000  9.272770e+002
      vertex  5.010000e+000  1.250000e+000  9.270270e+002
    endloop
  endfacet
  facet normal  0.000000e+000 -5.735558e-001  8.191665e-001
    outer loop
      vertex  8.010000e+000  1.606969e+000  9.272770e+002
      vertex  5.010000e+000  1.250000e+000  9.270270e+002
      vertex  8.010000e+000  1.250000e+000  9.270270e+002
    endloop
  endfacet
  facet normal  0.000000e+000 -4.226862e-001  9.062760e-001
    outer loop
      vertex  8.010000e+000  1.250000e+000  9.270270e+002
      vertex  5.010000e+000  1.250000e+000  9.270270e+002
      vertex  5.010000e+000  8.550504e-001  9.268428e+002
    endloop
  endfacet
  facet normal  0.000000e+000 -4.226862e-001  9.062760e-001
    outer loop
      vertex  8.010000e+000  1.250000e+000  9.270270e+002
      vertex  5.010000e+000  8.550504e-001  9.268428e+002
      vertex  8.010000e+000  8.550504e-001  9.268428e+002
    endloop
  endfacet
  facet normal  0.000000e+000 -2.588300e-001  9.659229e-001
    outer loop
      vertex  8.010000e+000  8.550504e-001  9.268428e+002
      vertex  5.010000e+000  8.550504e-001  9.268428e+002
      vertex  5.010000e+000  4.341204e-001  9.267300e+002
    endloop
  endfacet
  facet normal  0.000000e+000 -2.588300e-001  9.659229e-001
    outer loop
      vertex  8.010000e+000  8.550504e-001  9.268428e+002
      vertex  5.010000e+000  4.341204e-001  9.267300e+002
      vertex  8.010000e+000  4.341204e-001  9.267300e+002
    endloop
  endfacet
  facet normal  0.000000e+000 -8.711760e-002  9.961981e-001
    outer loop
      vertex  8.010000e+000  4.341204e-001  9.267300e+002
      vertex  5.010000e+000  4.341204e-001  9.267300e+002
      vertex  5.010000e+000 -1.530758e-016  9.266921e+002
    endloop
  endfacet
  facet normal  0.000000e+000 -8.711760e-002  9.961981e-001
    outer loop
      vertex  8.010000e+000  4.341204e-001  9.267300e+002
      vertex  5.010000e+000 -1.530758e-016  9.266921e+002
      vertex  8.010000e+000 -1.530758e-016  9.266921e+002
    endloop
  endfacet
  facet normal  0.000000e+000 -9.961951e-001  8.715110e-002
    outer loop
      vertex  5.010000e+000  2.462019e+000  9.287579e+002
      vertex  8.010000e+000  2.500000e+000  9.291921e+002
      vertex  5.010000e+000  2.500000e+000  9.291921e+002
    endloop
  endfacet
  facet normal  0.000000e+000 -9.961951e-001 -8.715110e-002
    outer loop
      vertex  5.010000e+000  2.500000e+000  9.291921e+002
      vertex  8.010000e+000  2.500000e+000  9.291921e+002
      vertex  8.010000e+000  2.462019e+000  9.296262e+002
    endloop
  endfacet
  facet normal  -0.000000e+000 -9.961951e-001 -8.715110e-002
    outer loop
      vertex  5.010000e+000  2.500000e+000  9.291921e+002
      vertex  8.010000e+000  2.462019e+000  9.296262e+002
      vertex  5.010000e+000  2.462019e+000  9.296262e+002
    endloop
  endfacet
  facet normal  0.000000e+000 -9.659209e-001 -2.588374e-001
    outer loop
      vertex  5.010000e+000  2.462019e+000  9.296262e+002
      vertex  8.010000e+000  2.462019e+000  9.296262e+002
      vertex  8.010000e+000  2.349231e+000  9.300471e+002
    endloop
  endfacet
  facet normal  -0.000000e+000 -9.659209e-001 -2.588374e-001
    outer loop
      vertex  5.010000e+000  2.462019e+000  9.296262e+002
      vertex  8.010000e+000  2.349231e+000  9.300471e+002
      vertex  5.010000e+000  2.349231e+000  9.300471e+002
    endloop
  endfacet
  facet normal  0.000000e+000 -9.063116e-001 -4.226101e-001
    outer loop
      vertex  5.010000e+000  2.349231e+000  9.300471e+002
      vertex  8.010000e+000  2.349231e+000  9.300471e+002
      vertex  8.010000e+000  2.165064e+000  9.304421e+002
    endloop
  endfacet
  facet normal  -0.000000e+000 -9.063116e-001 -4.226101e-001
    outer loop
      vertex  5.010000e+000  2.349231e+000  9.300471e+002
      vertex  8.010000e+000  2.165064e+000  9.304421e+002
      vertex  5.010000e+000  2.165064e+000  9.304421e+002
    endloop
  endfacet
  facet normal  0.000000e+000 -8.191712e-001 -5.735491e-001
    outer loop
      vertex  5.010000e+000  2.165064e+000  9.304421e+002
      vertex  8.010000e+000  2.165064e+000  9.304421e+002
      vertex  8.010000e+000  1.915111e+000  9.307991e+002
    endloop
  endfacet
  facet normal  -0.000000e+000 -8.191712e-001 -5.735491e-001
    outer loop
      vertex  5.010000e+000  2.165064e+000  9.304421e+002
      vertex  8.010000e+000  1.915111e+000  9.307991e+002
      vertex  5.010000e+000  1.915111e+000  9.307991e+002
    endloop
  endfacet
  facet normal  0.000000e+000 -7.070647e-001 -7.071487e-001
    outer loop
      vertex  5.010000e+000  1.915111e+000  9.307991e+002
      vertex  8.010000e+000  1.915111e+000  9.307991e+002
      vertex  8.010000e+000  1.606969e+000  9.311072e+002
    endloop
  endfacet
  facet normal  -0.000000e+000 -7.070647e-001 -7.071487e-001
    outer loop
      vertex  5.010000e+000  1.915111e+000  9.307991e+002
      vertex  8.010000e+000  1.606969e+000  9.311072e+002
      vertex  5.010000e+000  1.606969e+000  9.311072e+002
    endloop
  endfacet
  facet normal  0.000000e+000 -5.735558e-001 -8.191665e-001
    outer loop
      vertex  5.010000e+000  1.606969e+000  9.311072e+002
      vertex  8.010000e+000  1.606969e+000  9.311072e+002
      vertex  8.010000e+000  1.250000e+000  9.313571e+002
    endloop
  endfacet
  facet normal  -0.000000e+000 -5.735558e-001 -8.191665e-001
    outer loop
      vertex  5.010000e+000  1.606969e+000  9.311072e+002
      vertex  8.010000e+000  1.250000e+000  9.313571e+002
      vertex  5.010000e+000  1.250000e+000  9.313571e+002
    endloop
  endfacet
  facet normal  0.000000e+000 -4.226862e-001 -9.062760e-001
    outer loop
      vertex  5.010000e+000  1.250000e+000  9.313571e+002
      vertex  8.010000e+000  1.250000e+000  9.313571e+002
      vertex  8.010000e+000  8.550504e-001  9.315413e+002
    endloop
  endfacet
  facet normal  -0.000000e+000 -4.226862e-001 -9.062760e-001
    outer loop
      vertex  5.010000e+000  1.250000e+000  9.313571e+002
      vertex  8.010000e+000  8.550504e-001  9.315413e+002
      vertex  5.010000e+000  8.550504e-001  9.315413e+002
    endloop
  endfacet
  facet normal  0.000000e+000 -2.588300e-001 -9.659229e-001
    outer loop
      vertex  5.010000e+000  8.550504e-001  9.315413e+002
      vertex  8.010000e+000  8.550504e-001  9.315413e+002
      vertex  8.010000e+000  4.341204e-001  9.316541e+002
    endloop
  endfacet
  facet normal  -0.000000e+000 -2.588300e-001 -9.659229e-001
    outer loop
      vertex  5.010000e+000  8.550504e-001  9.315413e+002
      vertex  8.010000e+000  4.341204e-001  9.316541e+002
      vertex  5.010000e+000  4.341204e-001  9.316541e+002
    endloop
  endfacet
  facet normal  0.000000e+000 -8.711760e-002 -9.961981e-001
    outer loop
      vertex  5.010000e+000  4.341204e-001  9.316541e+002
      vertex  8.010000e+000  4.341204e-001  9.316541e+002
      vertex  8.010000e+000 -3.061516e-016  9.316921e+002
    endloop
  endfacet
  facet normal  -0.000000e+000 -8.711760e-002 -9.961981e-001
    outer loop
      vertex  5.010000e+000  4.341204e-001  9.316541e+002
      vertex  8.010000e+000 -3.061516e-016  9.316921e+002
      vertex  5.010000e+000 -3.061516e-016  9.316921e+002
    endloop
  endfacet
  facet normal  -0.000000e+000  0.000000e+000 -1.000000e+000
    outer loop
      vertex  5.010000e+000  8.000000e+001  9.191921e+002
      vertex  8.010000e+000  8.000000e+001  9.191921e+002
      vertex  5.010000e+000 -2.000000e+001  9.191921e+002
    endloop
  endfacet
  facet normal  0.000000e+000  0.000000e+000 -1.000000e+000
    outer loop
      vertex  5.010000e+000 -2.000000e+001  9.191921e+002
      vertex  8.010000e+000  8.000000e+001  9.191921e+002
      vertex  8.010000e+000 -2.000000e+001  9.191921e+002
    endloop
  endfacet
  facet normal  0.000000e+000  1.000000e+000  0.000000e+000
    outer loop
      vertex  5.010000e+000  8.000000e+001  9.191921e+002
      vertex  5.010000e+000  8.000000e+001  9.391921e+002
      vertex  8.010000e+000  8.000000e+001  9.191921e+002
    endloop
  endfacet
  facet normal  0.000000e+000  1.000000e+000  -0.000000e+000
    outer loop
      vertex  8.010000e+000  8.000000e+001  9.191921e+002
      vertex  5.010000e+000  8.000000e+001  9.391921e+002
      vertex  8.010000e+000  8.000000e+001  9.391921e+002
    endloop
  endfacet
  facet normal  0.000000e+000  0.000000e+000  1.000000e+000
    outer loop
      vertex  5.010000e+000 -2.000000e+001  9.391921e+002
      vertex  8.010000e+000 -2.000000e+001  9.391921e+002
      vertex  5.010000e+000  8.000000e+001  9.391921e+002
    endloop
  endfacet
  facet normal  -0.000000e+000  0.000000e+000  1.000000e+000
    outer loop
      vertex  5.010000e+000  8.000000e+001  9.391921e+002
      vertex  8.010000e+000 -2.000000e+001  9.391921e+002
      vertex  8.010000e+000  8.000000e+001  9.391921e+002
    endloop
  endfacet
  facet normal  0.000000e+000  1.000000e+000  0.000000e+000
    outer loop
      vertex  5.010000e+000 -2.000000e+001  9.631921e+002
      vertex  8.010000e+000 -2.000000e+001  9.631921e+002
      vertex  5.010000e+000 -2.000000e+001  9.391921e+002
    endloop
  endfacet
  facet normal  0.000000e+000  1.000000e+000  0.000000e+000
    outer loop
      vertex  5.010000e+000 -2.000000e+001  9.391921e+002
      vertex  8.010000e+000 -2.000000e+001  9.631921e+002
      vertex  8.010000e+000 -2.000000e+001  9.391921e+002
    endloop
  endfacet
  facet normal  0.000000e+000 -3.219027e-001  9.467727e-001
    outer loop
      vertex  5.010000e+000 -1.200000e+002  9.291921e+002
      vertex  8.010000e+000 -1.200000e+002  9.291921e+002
      vertex  5.010000e+000 -2.000000e+001  9.631921e+002
    endloop
  endfacet
  facet normal  0.000000e+000 -3.219027e-001  9.467727e-001
    outer loop
      vertex  5.010000e+000 -2.000000e+001  9.631921e+002
      vertex  8.010000e+000 -1.200000e+002  9.291921e+002
      vertex  8.010000e+000 -2.000000e+001  9.631921e+002
    endloop
  endfacet
  facet normal  -0.000000e+000 -3.219027e-001 -9.467727e-001
    outer loop
      vertex  5.010000e+000 -2.000000e+001  8.951921e+002
      vertex  8.010000e+000 -2.000000e+001  8.951921e+002
      vertex  5.010000e+000 -1.200000e+002  9.291921e+002
    endloop
  endfacet
  facet normal  0.000000e+000 -3.219027e-001 -9.467727e-001
    outer loop
      vertex  5.010000e+000 -1.200000e+002  9.291921e+002
      vertex  8.010000e+000 -2.000000e+001  8.951921e+002
      vertex  8.010000e+000 -1.200000e+002  9.291921e+002
    endloop
  endfacet
  facet normal  0.000000e+000  1.000000e+000  0.000000e+000
    outer loop
      vertex  5.010000e+000 -2.000000e+001  9.191921e+002
      vertex  8.010000e+000 -2.000000e+001  9.191921e+002
      vertex  5.010000e+000 -2.000000e+001  8.951921e+002
    endloop
  endfacet
  facet normal  0.000000e+000  1.000000e+000  0.000000e+000
    outer loop
      vertex  5.010000e+000 -2.000000e+001  8.951921e+002
      vertex  8.010000e+000 -2.000000e+001  9.191921e+002
      vertex  8.010000e+000 -2.000000e+001  8.951921e+002
    endloop
  endfacet
endsolid CATIA STL
